<svg>
    <symbol id="burger" xmlns="http://www.w3.org/2000/svg" viewBox="0 0 24 24">
        <path fill-rule="evenodd" clip-rule="evenodd"
            d="M1 12C1 11.4477 1.44772 11 2 11H22C22.5523 11 23 11.4477 23 12C23 12.5523 22.5523 13 22 13H2C1.44772 13 1 12.5523 1 12Z" />
        <path fill-rule="evenodd" clip-rule="evenodd"
            d="M1 18C1 17.4477 1.44772 17 2 17H22C22.5523 17 23 17.4477 23 18C23 18.5523 22.5523 19 22 19H2C1.44772 19 1 18.5523 1 18Z" />
        <path fill-rule="evenodd" clip-rule="evenodd"
            d="M1 6C1 5.44772 1.44772 5 2 5H22C22.5523 5 23 5.44772 23 6C23 6.55228 22.5523 7 22 7H2C1.44772 7 1 6.55228 1 6Z" />
    </symbol>
    <symbol id="xmark" xmlns="http://www.w3.org/2000/svg" viewBox="0 0 24 24">
        <path fill-rule="evenodd" clip-rule="evenodd"
            d="M4.29289 4.29289C4.68342 3.90237 5.31658 3.90237 5.70711 4.29289L12 10.5858L18.2929 4.29289C18.6834 3.90237 19.3166 3.90237 19.7071 4.29289C20.0976 4.68342 20.0976 5.31658 19.7071 5.70711L13.4142 12L19.7071 18.2929C20.0976 18.6834 20.0976 19.3166 19.7071 19.7071C19.3166 20.0976 18.6834 20.0976 18.2929 19.7071L12 13.4142L5.70711 19.7071C5.31658 20.0976 4.68342 20.0976 4.29289 19.7071C3.90237 19.3166 3.90237 18.6834 4.29289 18.2929L10.5858 12L4.29289 5.70711C3.90237 5.31658 3.90237 4.68342 4.29289 4.29289Z" />
    </symbol>
    <symbol id="arrow" xmlns="http://www.w3.org/2000/svg" viewBox="0 0 24 24">
        <path fill-rule="evenodd" clip-rule="evenodd"
            d="M9.20711 17.2071C8.81658 17.5976 8.18342 17.5976 7.79289 17.2071L3.29289 12.7071C2.90237 12.3166 2.90237 11.6834 3.29289 11.2929L7.79289 6.79289C8.18342 6.40237 8.81658 6.40237 9.20711 6.79289C9.59763 7.18342 9.59763 7.81658 9.20711 8.20711L6.41421 11L20 11C20.5523 11 21 11.4477 21 12C21 12.5523 20.5523 13 20 13L6.41421 13L9.20711 15.7929C9.59763 16.1834 9.59763 16.8166 9.20711 17.2071Z" />
    </symbol>
</svg>